<svg xmlns="http://www.w3.org/2000/svg" xmlns:xlink="http://www.w3.org/1999/xlink" fill="none" version="1.1" width="120" height="120" viewBox="0 0 120 120"><defs><linearGradient x1="0" y1="0.5" x2="1" y2="0.5" id="master_svg0_706_7422"><stop offset="12.142857164144516%" stop-color="#F0312A" stop-opacity="1"/><stop offset="50.71428418159485%" stop-color="#55F146" stop-opacity="1"/><stop offset="82.14285969734192%" stop-color="#105EE5" stop-opacity="1"/></linearGradient></defs><g><path d="M47.8839,1.18011C24.5865,5.72706,5.81264,24.4539,1.21878,47.6808C-7.4533,91.5097,32.0867,124.182,61.8765,119.565C71.5329,118.065,76.2674,106.768,71.8376,98.0723C66.4235,87.4315,74.158,75.0094,86.1114,75.0094L104.792,75.0094C113.182,75.0094,119.979,68.0718,120.003,59.7045C119.886,22.7664,86.2755,-6.29657,47.8839,1.18011ZM22.5005,75.0094C18.352,75.0094,15.0004,71.6578,15.0004,67.5093C15.0004,63.3608,18.352,60.0092,22.5005,60.0092C26.6491,60.0092,30.0007,63.3608,30.0007,67.5093C30.0007,71.6578,26.6491,75.0094,22.5005,75.0094ZM30.0007,45.0089C25.8522,45.0089,22.5005,41.6573,22.5005,37.5088C22.5005,33.3603,25.8522,30.0087,30.0007,30.0087C34.1493,30.0087,37.5009,33.3603,37.5009,37.5088C37.5009,41.6573,34.1492,45.0089,30.0007,45.0089ZM60.0014,30.0087C55.8529,30.0087,52.5012,26.6571,52.5012,22.5086C52.5012,18.3601,55.8529,15.0085,60.0014,15.0085C64.15,15.0085,67.5016,18.3601,67.5016,22.5086C67.5016,26.6571,64.15,30.0087,60.0014,30.0087ZM90.0021,45.0089C85.8536,45.0089,82.502,41.6573,82.502,37.5088C82.502,33.3603,85.8536,30.0087,90.0021,30.0087C94.1507,30.0087,97.5023,33.3603,97.5023,37.5088C97.5023,41.6573,94.1507,45.0089,90.0021,45.0089Z" fill="url(#master_svg0_706_7422)" fill-opacity="1"/></g></svg>